<svg width="917" height="628" viewBox="0 0 917 628" fill="none" xmlns="http://www.w3.org/2000/svg">
<path d="M65.2728 248.017L56.4631 262.929L73.7828 263.102L65.2728 248.017ZM63.5002 575.647L66.6378 261.531L63.638 261.501L60.5003 575.617L63.5002 575.647Z" fill="black"/>
<path d="M388.631 574.042L373.636 582.711L373.626 565.391L388.631 574.042ZM60.9995 572.747L375.13 572.55L375.132 575.55L61.0014 575.747L60.9995 572.747Z" fill="black"/>
<path d="M433.695 575.901C431.852 576.247 431.16 577.63 431.16 578.724C431.16 580.107 432.255 580.568 433.062 580.568C434.79 580.568 436 579.07 436 577.514C436 575.095 433.235 574 430.815 574C427.3 574 425.342 577.457 424.823 578.551C423.498 574.23 419.926 574 418.889 574C413.012 574 409.901 581.547 409.901 582.815C409.901 583.045 410.132 583.333 410.535 583.333C410.996 583.333 411.111 582.988 411.226 582.757C413.185 576.362 417.045 575.152 418.716 575.152C421.309 575.152 421.827 577.572 421.827 578.955C421.827 580.222 421.481 581.547 420.79 584.313L418.831 592.206C417.967 595.663 416.296 598.831 413.243 598.831C412.955 598.831 411.514 598.831 410.305 598.082C412.379 597.679 412.84 595.951 412.84 595.259C412.84 594.107 411.975 593.416 410.881 593.416C409.498 593.416 408 594.626 408 596.469C408 598.889 410.708 599.984 413.185 599.984C415.951 599.984 417.909 597.794 419.119 595.432C420.041 598.831 422.922 599.984 425.053 599.984C430.93 599.984 434.041 592.436 434.041 591.169C434.041 590.881 433.811 590.65 433.465 590.65C432.947 590.65 432.889 590.938 432.716 591.399C431.16 596.469 427.819 598.831 425.226 598.831C423.21 598.831 422.115 597.333 422.115 594.971C422.115 593.704 422.346 592.782 423.267 588.979L425.284 581.144C426.148 577.687 428.107 575.152 430.757 575.152C430.872 575.152 432.486 575.152 433.695 575.901Z" fill="black"/>
<path d="M65.082 227.654C63.5854 229.761 61.4235 231.645 58.7073 231.645C58.0421 231.645 55.3814 231.534 54.5499 228.984C54.7162 229.04 54.9933 229.04 55.1042 229.04C56.7672 229.04 57.8758 227.599 57.8758 226.324C57.8758 225.049 56.8226 224.605 55.9911 224.605C55.1042 224.605 53.1641 225.271 53.1641 227.987C53.1641 230.814 55.5477 232.754 58.7073 232.754C64.2506 232.754 69.8492 227.654 71.4013 221.501L76.8337 199.882C76.8891 199.605 77 199.273 77 198.94C77 198.109 76.3348 197.554 75.5033 197.554C75.0044 197.554 73.8404 197.776 73.3969 199.439L69.2949 215.736C69.0177 216.734 69.0177 216.845 68.5743 217.455C67.4656 219.007 65.6364 220.891 62.9756 220.891C59.8714 220.891 59.5942 217.843 59.5942 216.346C59.5942 213.186 61.0909 208.918 62.5876 204.927C63.1973 203.319 63.5299 202.543 63.5299 201.435C63.5299 199.106 61.867 197 59.1508 197C54.051 197 52 205.038 52 205.481C52 205.703 52.2217 205.98 52.6098 205.98C53.1086 205.98 53.1641 205.758 53.3858 204.982C54.7162 200.326 56.8226 198.109 58.9845 198.109C59.4834 198.109 60.4257 198.109 60.4257 199.938C60.4257 201.379 59.816 202.987 58.9845 205.093C56.2683 212.355 56.2683 214.184 56.2683 215.514C56.2683 220.78 60.0377 222 62.8093 222C64.4169 222 66.4124 221.501 68.3526 219.45L68.408 219.506C67.5765 222.776 67.0222 224.938 65.082 227.654Z" fill="black"/>
<path d="M715.498 281C715.498 313.282 689.109 339.5 656.498 339.5C623.886 339.5 597.498 313.282 597.498 281C597.498 248.718 623.886 222.5 656.498 222.5C689.109 222.5 715.498 248.718 715.498 281Z" fill="#F8CECE" stroke="black" stroke-width="7"/>
<path d="M671.991 377.414C673.431 377.668 675.718 378.177 676.226 378.261C677.327 378.6 681.139 379.955 681.139 384.021C681.139 386.647 678.767 393.508 668.941 393.508C667.162 393.508 660.81 393.254 659.116 388.595C662.504 389.019 664.198 386.393 664.198 384.529C664.198 382.751 663.012 381.819 661.318 381.819C659.454 381.819 656.998 383.259 656.998 387.071C656.998 392.068 662.08 395.202 668.857 395.202C681.732 395.202 685.543 385.715 685.543 381.311C685.543 380.04 685.543 377.668 682.833 374.958C680.715 372.925 678.682 372.501 674.108 371.57C671.821 371.061 668.179 370.299 668.179 366.487C668.179 364.793 669.704 358.695 677.75 358.695C681.308 358.695 684.781 360.05 685.628 363.099C681.901 363.099 681.732 366.318 681.732 366.403C681.732 368.181 683.341 368.69 684.103 368.69C685.289 368.69 687.661 367.758 687.661 364.2C687.661 360.643 684.442 357 677.835 357C666.739 357 663.774 365.725 663.774 369.198C663.774 375.635 670.042 376.991 671.991 377.414Z" fill="black"/>
<path d="M720.037 384.529C717.552 385.151 717.439 387.353 717.439 387.579C717.439 388.821 718.399 389.668 719.642 389.668C720.884 389.668 722.804 388.708 722.804 386.28C722.804 383.061 719.246 382.158 717.157 382.158C714.503 382.158 712.357 384.021 711.058 386.223C709.816 383.231 706.879 382.158 704.564 382.158C698.409 382.158 694.964 389.216 694.964 390.797C694.964 391.306 695.36 391.532 695.811 391.532C696.489 391.532 696.602 391.249 696.771 390.572C698.07 386.449 701.458 383.739 704.395 383.739C706.597 383.739 707.67 385.32 707.67 387.353C707.67 388.482 706.992 391.08 706.541 392.887C706.145 394.524 704.903 399.55 704.621 400.623C703.83 403.673 701.797 406.044 699.256 406.044C699.03 406.044 697.562 406.044 696.376 405.254C698.974 404.633 698.974 402.261 698.974 402.204C698.974 400.906 697.957 400.115 696.715 400.115C695.19 400.115 693.553 401.414 693.553 403.56C693.553 406.157 696.32 407.625 699.2 407.625C702.192 407.625 704.282 405.367 705.298 403.56C706.541 406.327 709.138 407.625 711.849 407.625C718.004 407.625 721.392 400.567 721.392 398.986C721.392 398.421 720.94 398.251 720.545 398.251C719.867 398.251 719.754 398.647 719.585 399.211C718.456 402.995 715.237 406.044 711.962 406.044C710.098 406.044 708.743 404.802 708.743 402.43C708.743 401.301 709.082 400.002 709.872 396.84C710.268 395.146 711.51 390.176 711.792 389.103C712.583 386.167 714.559 383.739 717.1 383.739C717.383 383.739 718.851 383.739 720.037 384.529Z" fill="black"/>
<path d="M745.567 394.694C745.567 389.781 743.957 386.139 740.484 386.139C737.774 386.139 736.419 388.341 736.419 390.205C736.419 392.068 737.689 394.355 740.569 394.355C741.67 394.355 742.602 394.016 743.364 393.254C743.534 393.085 743.618 393.085 743.703 393.085C743.873 393.085 743.873 394.27 743.873 394.694C743.873 397.489 743.364 402.995 738.451 408.501C737.52 409.517 737.52 409.687 737.52 409.856C737.52 410.28 737.943 410.703 738.367 410.703C739.044 410.703 745.567 404.435 745.567 394.694Z" fill="black"/>
<path d="M785.518 377.414C786.958 377.668 789.245 378.177 789.753 378.261C790.854 378.6 794.666 379.955 794.666 384.021C794.666 386.647 792.294 393.508 782.468 393.508C780.689 393.508 774.337 393.254 772.643 388.595C776.031 389.019 777.725 386.393 777.725 384.529C777.725 382.751 776.539 381.819 774.845 381.819C772.981 381.819 770.525 383.259 770.525 387.071C770.525 392.068 775.607 395.202 782.384 395.202C795.259 395.202 799.07 385.715 799.07 381.311C799.07 380.04 799.07 377.668 796.36 374.958C794.242 372.925 792.209 372.501 787.635 371.57C785.348 371.061 781.706 370.299 781.706 366.487C781.706 364.793 783.231 358.695 791.277 358.695C794.835 358.695 798.308 360.05 799.155 363.099C795.428 363.099 795.259 366.318 795.259 366.403C795.259 368.181 796.868 368.69 797.63 368.69C798.816 368.69 801.188 367.758 801.188 364.2C801.188 360.643 797.969 357 791.362 357C780.266 357 777.301 365.725 777.301 369.198C777.301 375.635 783.569 376.991 785.518 377.414Z" fill="black"/>
<path d="M834.524 385.772C834.75 384.981 834.75 384.868 834.75 384.473C834.75 383.061 833.62 382.722 832.943 382.722C832.66 382.722 831.362 382.779 830.627 384.247C830.514 384.529 830.006 386.562 829.724 387.748L826.336 401.301C826.279 401.47 823.851 406.044 819.729 406.044C816.962 406.044 816.002 404.011 816.002 401.47C816.002 398.195 817.922 393.169 819.221 389.894C819.785 388.482 819.955 387.974 819.955 386.958C819.955 383.852 817.47 382.158 814.872 382.158C809.282 382.158 806.967 390.12 806.967 390.797C806.967 391.306 807.362 391.532 807.814 391.532C808.548 391.532 808.604 391.193 808.774 390.628C810.242 385.715 812.67 383.739 814.703 383.739C815.55 383.739 816.058 384.303 816.058 385.602C816.058 386.788 815.607 388.087 815.211 389.103C812.896 395.089 811.936 397.969 811.936 400.623C811.936 406.157 816.115 407.625 819.446 407.625C822.101 407.625 824.02 406.44 825.376 405.141C824.585 408.303 824.02 410.505 821.875 413.216C820.011 415.531 817.752 416.999 815.211 416.999C814.251 416.999 812.105 416.83 810.976 415.136C813.969 414.91 814.195 412.369 814.195 412.03C814.195 410.675 813.178 409.941 811.992 409.941C810.75 409.941 808.774 410.901 808.774 413.668C808.774 416.322 811.202 418.58 815.211 418.58C820.971 418.58 827.465 413.95 829.159 407.117L834.524 385.772Z" fill="black"/>
<path d="M659.028 285.058C660.164 283.494 659.818 281.305 658.254 280.169C656.691 279.032 654.502 279.379 653.365 280.942L659.028 285.058ZM537 447L573.923 430.568L541.231 406.808L537 447ZM653.365 280.942L552.688 419.461L558.351 423.577L659.028 285.058L653.365 280.942Z" fill="black"/>
<rect x="1.69291" y="-4.65124" width="267" height="267" transform="matrix(0.906308 -0.422618 -0.422618 -0.906308 247.99 443.955)" fill="#DFE0FF" stroke="black" stroke-width="7"/>
<path d="M312.519 269.557C312.484 271.49 314.022 273.085 315.955 273.121C317.887 273.156 319.483 271.618 319.518 269.686L312.519 269.557ZM319.518 269.686L323.634 45.0885L316.635 44.9602L312.519 269.557L319.518 269.686Z" fill="black"/>
<path d="M312.762 271.105C313.558 272.866 315.632 273.648 317.393 272.851C319.154 272.054 319.936 269.981 319.139 268.219L312.762 271.105ZM319.139 268.219L226.529 63.5631L220.152 66.449L312.762 271.105L319.139 268.219Z" fill="black"/>
<path d="M265.484 35.8099C265.557 35.5203 265.702 35.0859 265.702 34.724C265.702 34 264.978 34 264.833 34C264.761 34 262.154 34.2172 260.851 34.362C259.62 34.4344 258.534 34.5792 257.231 34.6516C255.494 34.7964 254.987 34.8688 254.987 36.1719C254.987 36.8958 255.711 36.8958 256.435 36.8958C260.127 36.8958 260.127 37.5474 260.127 38.2714C260.127 38.7781 259.548 40.8776 259.258 42.1807L257.521 49.1307C256.797 52.0266 252.67 68.4604 252.381 69.7635C252.019 71.5734 252.019 72.8042 252.019 73.7453C252.019 81.1297 256.145 84.9667 260.851 84.9667C269.249 84.9667 277.937 74.1797 277.937 63.6823C277.937 57.0219 274.172 52.3161 268.742 52.3161C264.978 52.3161 261.575 55.4292 260.2 56.8771L265.484 35.8099ZM260.924 83.5188C258.607 83.5188 256.073 81.7813 256.073 76.1344C256.073 73.7453 256.29 72.3698 257.593 67.3021C257.811 66.3609 258.969 61.7276 259.258 60.7865C259.403 60.2073 263.675 53.7641 268.598 53.7641C271.783 53.7641 273.231 56.9495 273.231 60.7141C273.231 64.1891 271.204 72.3698 269.394 76.1344C267.584 80.0438 264.254 83.5188 260.924 83.5188Z" fill="black"/>
<path d="M302.019 71.4045C302.019 65.3715 299.702 61.1243 295.696 61.1243C288.505 61.1243 281.024 74.5416 281.024 85.3045C281.024 89.9378 282.617 95.5847 287.395 95.5847C294.442 95.5847 302.019 82.5052 302.019 71.4045ZM286.43 77.534C288.698 67.7847 292.656 62.4757 295.648 62.4757C298.544 62.4757 298.544 67.6399 298.544 68.5569C298.544 71.2597 297.675 75.1691 297.096 77.534H286.43ZM296.662 79.175C294.393 88.876 290.436 94.2333 287.443 94.2333C284.837 94.2333 284.547 90.3722 284.547 88.152C284.547 85.1114 285.464 81.202 285.995 79.175H296.662Z" fill="black"/>
<path d="M316.93 200.027C306.634 199.733 296.398 201.62 286.934 205.557L314.96 268.999L316.93 200.027Z" stroke="black" stroke-width="7"/>
<path d="M343.688 273.571C343.751 273.32 343.876 272.943 343.876 272.628C343.876 272 343.248 272 343.122 272C343.059 272 340.797 272.189 339.666 272.314C338.598 272.377 337.655 272.503 336.524 272.566C335.016 272.691 334.576 272.754 334.576 273.885C334.576 274.513 335.205 274.513 335.833 274.513C339.038 274.513 339.038 275.079 339.038 275.707C339.038 276.147 338.535 277.969 338.284 279.101L336.776 285.133C336.147 287.646 332.566 301.91 332.314 303.041C332 304.612 332 305.681 332 306.497C332 312.907 335.582 316.237 339.666 316.237C346.955 316.237 354.496 306.874 354.496 297.763C354.496 291.982 351.228 287.898 346.515 287.898C343.248 287.898 340.295 290.6 339.101 291.856L343.688 273.571ZM339.729 314.98C337.718 314.98 335.519 313.472 335.519 308.571C335.519 306.497 335.707 305.304 336.838 300.905C337.027 300.088 338.032 296.067 338.284 295.25C338.409 294.747 342.117 289.154 346.39 289.154C349.155 289.154 350.411 291.919 350.411 295.187C350.411 298.203 348.652 305.304 347.081 308.571C345.51 311.964 342.619 314.98 339.729 314.98Z" fill="black"/>
<path d="M376.32 308.32C374.476 308.78 374.393 310.414 374.393 310.582C374.393 311.503 375.105 312.132 376.026 312.132C376.948 312.132 378.372 311.42 378.372 309.618C378.372 307.23 375.733 306.56 374.183 306.56C372.214 306.56 370.622 307.943 369.659 309.576C368.737 307.356 366.559 306.56 364.841 306.56C360.275 306.56 357.72 311.797 357.72 312.97C357.72 313.347 358.013 313.514 358.348 313.514C358.851 313.514 358.935 313.305 359.06 312.802C360.024 309.744 362.537 307.733 364.716 307.733C366.35 307.733 367.145 308.906 367.145 310.414C367.145 311.252 366.643 313.179 366.308 314.52C366.014 315.734 365.093 319.463 364.883 320.259C364.297 322.521 362.789 324.28 360.904 324.28C360.736 324.28 359.647 324.28 358.767 323.694C360.694 323.233 360.694 321.473 360.694 321.432C360.694 320.468 359.94 319.882 359.019 319.882C357.888 319.882 356.673 320.845 356.673 322.437C356.673 324.364 358.725 325.453 360.862 325.453C363.082 325.453 364.632 323.777 365.386 322.437C366.308 324.49 368.235 325.453 370.245 325.453C374.812 325.453 377.325 320.217 377.325 319.044C377.325 318.625 376.99 318.499 376.697 318.499C376.194 318.499 376.11 318.792 375.985 319.211C375.147 322.018 372.759 324.28 370.329 324.28C368.947 324.28 367.941 323.359 367.941 321.599C367.941 320.761 368.193 319.798 368.779 317.452C369.072 316.195 369.994 312.509 370.204 311.713C370.79 309.534 372.256 307.733 374.141 307.733C374.351 307.733 375.44 307.733 376.32 308.32Z" fill="black"/>
<path d="M395.259 315.86C395.259 312.216 394.065 309.514 391.488 309.514C389.478 309.514 388.472 311.147 388.472 312.53C388.472 313.912 389.415 315.609 391.551 315.609C392.368 315.609 393.059 315.357 393.625 314.792C393.751 314.666 393.813 314.666 393.876 314.666C394.002 314.666 394.002 315.546 394.002 315.86C394.002 317.934 393.625 322.018 389.98 326.102C389.289 326.856 389.289 326.982 389.289 327.108C389.289 327.422 389.603 327.736 389.917 327.736C390.42 327.736 395.259 323.086 395.259 315.86Z" fill="black"/>
<path d="M425.084 273.571C425.147 273.32 425.273 272.943 425.273 272.628C425.273 272 424.644 272 424.519 272C424.456 272 422.194 272.189 421.063 272.314C419.995 272.377 419.052 272.503 417.921 272.566C416.413 272.691 415.973 272.754 415.973 273.885C415.973 274.513 416.601 274.513 417.23 274.513C420.434 274.513 420.434 275.079 420.434 275.707C420.434 276.147 419.932 277.969 419.68 279.101L418.172 285.133C417.544 287.646 413.962 301.91 413.711 303.041C413.397 304.612 413.397 305.681 413.397 306.497C413.397 312.907 416.978 316.237 421.063 316.237C428.352 316.237 435.892 306.874 435.892 297.763C435.892 291.982 432.625 287.898 427.912 287.898C424.644 287.898 421.691 290.6 420.497 291.856L425.084 273.571ZM421.126 314.98C419.115 314.98 416.916 313.472 416.916 308.571C416.916 306.497 417.104 305.304 418.235 300.905C418.424 300.088 419.429 296.067 419.68 295.25C419.806 294.747 423.513 289.154 427.786 289.154C430.551 289.154 431.808 291.919 431.808 295.187C431.808 298.203 430.048 305.304 428.477 308.571C426.907 311.964 424.016 314.98 421.126 314.98Z" fill="black"/>
<path d="M458.429 309.241C458.596 308.655 458.596 308.571 458.596 308.278C458.596 307.23 457.758 306.979 457.256 306.979C457.046 306.979 456.083 307.021 455.538 308.11C455.454 308.32 455.077 309.828 454.868 310.707L452.354 320.761C452.312 320.887 450.511 324.28 447.453 324.28C445.4 324.28 444.688 322.772 444.688 320.887C444.688 318.457 446.112 314.729 447.076 312.299C447.495 311.252 447.621 310.875 447.621 310.121C447.621 307.817 445.777 306.56 443.85 306.56C439.703 306.56 437.986 312.467 437.986 312.97C437.986 313.347 438.279 313.514 438.614 313.514C439.159 313.514 439.2 313.263 439.326 312.844C440.415 309.199 442.217 307.733 443.725 307.733C444.353 307.733 444.73 308.152 444.73 309.116C444.73 309.995 444.395 310.959 444.102 311.713C442.384 316.153 441.672 318.29 441.672 320.259C441.672 324.364 444.772 325.453 447.244 325.453C449.212 325.453 450.637 324.573 451.642 323.61C451.056 325.956 450.637 327.59 449.045 329.6C447.662 331.318 445.987 332.407 444.102 332.407C443.39 332.407 441.798 332.281 440.96 331.025C443.18 330.857 443.348 328.972 443.348 328.721C443.348 327.715 442.594 327.171 441.714 327.171C440.792 327.171 439.326 327.883 439.326 329.935C439.326 331.904 441.127 333.58 444.102 333.58C448.375 333.58 453.192 330.145 454.449 325.076L458.429 309.241Z" fill="black"/>
<path d="M543.597 513.442C544.698 518.185 548.764 519.202 550.797 519.202C553.508 519.202 555.54 517.423 556.896 514.543C558.336 511.494 559.437 506.496 559.437 506.242C559.437 505.818 559.098 505.48 558.59 505.48C557.827 505.48 557.743 505.903 557.404 507.174C555.879 513.018 554.355 517.508 550.966 517.508C548.425 517.508 548.425 514.712 548.425 513.611C548.425 511.663 548.679 510.816 549.526 507.258C550.119 504.971 550.712 502.684 551.221 500.313L554.693 486.506C555.286 484.388 555.286 484.219 555.286 483.965C555.286 482.694 554.27 481.847 552.999 481.847C550.543 481.847 549.95 483.965 549.442 486.082C548.595 489.386 544.021 507.597 543.428 510.562C543.343 510.562 540.04 517.508 533.856 517.508C529.452 517.508 528.604 513.696 528.604 510.562C528.604 505.734 530.976 498.957 533.179 493.282C534.195 490.572 534.619 489.47 534.619 487.776C534.619 484.134 531.993 481 527.927 481C520.134 481 517 493.282 517 493.96C517 494.299 517.339 494.722 517.932 494.722C518.694 494.722 518.779 494.383 519.118 493.197C521.151 485.913 524.454 482.694 527.673 482.694C528.52 482.694 529.875 482.779 529.875 485.489C529.875 487.692 528.943 490.148 527.673 493.367C523.946 503.447 523.522 506.665 523.522 509.207C523.522 517.846 530.044 519.202 533.517 519.202C538.938 519.202 541.903 515.475 543.597 513.442Z" fill="black"/>
<path d="M590.209 508.529C587.724 509.15 587.611 511.352 587.611 511.578C587.611 512.82 588.571 513.668 589.814 513.668C591.056 513.668 592.976 512.708 592.976 510.279C592.976 507.061 589.418 506.157 587.329 506.157C584.675 506.157 582.529 508.021 581.23 510.223C579.988 507.23 577.051 506.157 574.736 506.157C568.581 506.157 565.136 513.216 565.136 514.797C565.136 515.305 565.532 515.531 565.983 515.531C566.661 515.531 566.774 515.249 566.943 514.571C568.242 510.449 571.63 507.738 574.567 507.738C576.769 507.738 577.842 509.319 577.842 511.352C577.842 512.482 577.164 515.079 576.713 516.886C576.317 518.524 575.075 523.55 574.793 524.623C574.002 527.672 571.969 530.044 569.428 530.044C569.202 530.044 567.734 530.044 566.548 529.253C569.146 528.632 569.146 526.26 569.146 526.204C569.146 524.905 568.129 524.114 566.887 524.114C565.362 524.114 563.725 525.413 563.725 527.559C563.725 530.157 566.492 531.625 569.372 531.625C572.364 531.625 574.454 529.366 575.47 527.559C576.713 530.326 579.31 531.625 582.021 531.625C588.176 531.625 591.564 524.566 591.564 522.985C591.564 522.42 591.112 522.251 590.717 522.251C590.039 522.251 589.926 522.646 589.757 523.211C588.628 526.994 585.409 530.044 582.134 530.044C580.27 530.044 578.915 528.801 578.915 526.43C578.915 525.3 579.254 524.001 580.044 520.839C580.44 519.145 581.682 514.176 581.964 513.103C582.755 510.166 584.731 507.738 587.272 507.738C587.555 507.738 589.023 507.738 590.209 508.529Z" fill="black"/>
<path d="M615.739 518.693C615.739 513.781 614.129 510.138 610.656 510.138C607.946 510.138 606.591 512.341 606.591 514.204C606.591 516.068 607.861 518.355 610.741 518.355C611.842 518.355 612.774 518.016 613.536 517.253C613.706 517.084 613.79 517.084 613.875 517.084C614.045 517.084 614.045 518.27 614.045 518.693C614.045 521.489 613.536 526.994 608.623 532.5C607.692 533.517 607.692 533.686 607.692 533.856C607.692 534.279 608.115 534.703 608.539 534.703C609.216 534.703 615.739 528.434 615.739 518.693Z" fill="black"/>
<path d="M665.261 513.442C666.362 518.185 670.428 519.202 672.461 519.202C675.172 519.202 677.204 517.423 678.56 514.543C680 511.494 681.101 506.496 681.101 506.242C681.101 505.818 680.762 505.48 680.254 505.48C679.491 505.48 679.407 505.903 679.068 507.174C677.543 513.018 676.019 517.508 672.63 517.508C670.089 517.508 670.089 514.712 670.089 513.611C670.089 511.663 670.343 510.816 671.19 507.258C671.783 504.971 672.376 502.684 672.884 500.313L676.357 486.506C676.95 484.388 676.95 484.219 676.95 483.965C676.95 482.694 675.934 481.847 674.663 481.847C672.207 481.847 671.614 483.965 671.106 486.082C670.259 489.386 665.685 507.597 665.092 510.562C665.007 510.562 661.704 517.508 655.52 517.508C651.115 517.508 650.268 513.696 650.268 510.562C650.268 505.734 652.64 498.957 654.842 493.282C655.859 490.572 656.282 489.47 656.282 487.776C656.282 484.134 653.657 481 649.591 481C641.798 481 638.664 493.282 638.664 493.96C638.664 494.299 639.003 494.722 639.596 494.722C640.358 494.722 640.443 494.383 640.782 493.197C642.814 485.913 646.118 482.694 649.337 482.694C650.184 482.694 651.539 482.779 651.539 485.489C651.539 487.692 650.607 490.148 649.337 493.367C645.61 503.447 645.186 506.665 645.186 509.207C645.186 517.846 651.708 519.202 655.181 519.202C660.602 519.202 663.567 515.475 665.261 513.442Z" fill="black"/>
<path d="M712.833 509.771C713.059 508.981 713.059 508.868 713.059 508.472C713.059 507.061 711.929 506.722 711.252 506.722C710.969 506.722 709.67 506.778 708.936 508.246C708.823 508.529 708.315 510.562 708.033 511.748L704.645 525.3C704.588 525.47 702.16 530.044 698.038 530.044C695.271 530.044 694.311 528.011 694.311 525.47C694.311 522.194 696.231 517.169 697.529 513.893C698.094 512.482 698.264 511.973 698.264 510.957C698.264 507.851 695.779 506.157 693.181 506.157C687.591 506.157 685.276 514.119 685.276 514.797C685.276 515.305 685.671 515.531 686.123 515.531C686.857 515.531 686.913 515.192 687.083 514.627C688.551 509.715 690.979 507.738 693.012 507.738C693.859 507.738 694.367 508.303 694.367 509.602C694.367 510.788 693.915 512.086 693.52 513.103C691.205 519.089 690.245 521.969 690.245 524.623C690.245 530.157 694.424 531.625 697.755 531.625C700.409 531.625 702.329 530.439 703.685 529.14C702.894 532.302 702.329 534.505 700.183 537.215C698.32 539.531 696.061 540.999 693.52 540.999C692.56 540.999 690.414 540.829 689.285 539.135C692.278 538.909 692.504 536.368 692.504 536.029C692.504 534.674 691.487 533.94 690.301 533.94C689.059 533.94 687.083 534.9 687.083 537.667C687.083 540.321 689.511 542.58 693.52 542.58C699.28 542.58 705.774 537.949 707.468 531.117L712.833 509.771Z" fill="black"/>
</svg>
