<svg width="1260" height="1254" viewBox="0 0 1260 1254" fill="none" xmlns="http://www.w3.org/2000/svg">
<rect width="1260" height="1254" fill="white"/>
<ellipse cx="647" cy="660.5" rx="320" ry="317.5" stroke="#34961C" stroke-width="8" stroke-dasharray="14 14"/>
<text transform="translate(356.581 378.577) rotate(-41.0552)" fill="#34961C" xml:space="preserve" style="white-space: pre" font-family="Inter" font-size="128" letter-spacing="0em"><tspan x="0" y="124.045">&#62;</tspan></text>
<text transform="translate(808 828.83) rotate(-51.8354)" fill="#34961C" xml:space="preserve" style="white-space: pre" font-family="Inter" font-size="128" letter-spacing="0em"><tspan x="0" y="124.045">&#60;</tspan></text>
<rect width="274" height="274" transform="matrix(0.610012 0.792392 0.792392 -0.610012 820 398.143)" fill="#DFE0FF" fill-opacity="0.2"/>
<rect x="4.90841" y="0.638332" width="267" height="267" transform="matrix(0.610012 0.792392 0.792392 -0.610012 821.408 395.282)" stroke="black" stroke-opacity="0.2" stroke-width="7"/>
<rect width="274" height="274" transform="matrix(0.610012 0.792392 0.792392 -0.610012 734 524.143)" fill="#DFE0FF" fill-opacity="0.2"/>
<rect x="4.90841" y="0.638332" width="267" height="267" transform="matrix(0.610012 0.792392 0.792392 -0.610012 735.408 521.282)" stroke="black" stroke-opacity="0.2" stroke-width="7"/>
<rect width="274" height="274" transform="matrix(0.610012 0.792392 0.792392 -0.610012 632 469.143)" fill="#DFE0FF" fill-opacity="0.2"/>
<rect x="4.90841" y="0.638332" width="267" height="267" transform="matrix(0.610012 0.792392 0.792392 -0.610012 633.408 466.282)" stroke="black" stroke-opacity="0.2" stroke-width="7"/>
<ellipse cx="819.5" cy="215" rx="62.5" ry="62" fill="#F8CECE" fill-opacity="0.2"/>
<path d="M878.5 215C878.5 247.282 852.111 273.5 819.5 273.5C786.889 273.5 760.5 247.282 760.5 215C760.5 182.718 786.889 156.5 819.5 156.5C852.111 156.5 878.5 182.718 878.5 215Z" stroke="black" stroke-opacity="0.2" stroke-width="7"/>
<ellipse cx="569.5" cy="207" rx="62.5" ry="62" fill="#F8CECE" fill-opacity="0.2"/>
<path d="M628.5 207C628.5 239.282 602.111 265.5 569.5 265.5C536.889 265.5 510.5 239.282 510.5 207C510.5 174.718 536.889 148.5 569.5 148.5C602.111 148.5 628.5 174.718 628.5 207Z" stroke="black" stroke-opacity="0.2" stroke-width="7"/>
<ellipse cx="671.5" cy="129" rx="62.5" ry="62" fill="#F8CECE" fill-opacity="0.2"/>
<path d="M730.5 129C730.5 161.282 704.111 187.5 671.5 187.5C638.889 187.5 612.5 161.282 612.5 129C612.5 96.7178 638.889 70.5 671.5 70.5C704.111 70.5 730.5 96.7178 730.5 129Z" stroke="black" stroke-opacity="0.2" stroke-width="7"/>
<ellipse cx="546.5" cy="119" rx="62.5" ry="62" fill="#F8CECE" fill-opacity="0.2"/>
<path d="M605.5 119C605.5 151.282 579.111 177.5 546.5 177.5C513.889 177.5 487.5 151.282 487.5 119C487.5 86.7178 513.889 60.5 546.5 60.5C579.111 60.5 605.5 86.7178 605.5 119Z" stroke="black" stroke-opacity="0.2" stroke-width="7"/>
<ellipse cx="439.5" cy="253" rx="62.5" ry="62" fill="#F8CECE" fill-opacity="0.2"/>
<path d="M498.5 253C498.5 285.282 472.111 311.5 439.5 311.5C406.889 311.5 380.5 285.282 380.5 253C380.5 220.718 406.889 194.5 439.5 194.5C472.111 194.5 498.5 220.718 498.5 253Z" stroke="black" stroke-opacity="0.2" stroke-width="7"/>
<ellipse cx="694.5" cy="331" rx="62.5" ry="62" fill="#F8CECE" fill-opacity="0.2"/>
<path d="M753.5 331C753.5 363.282 727.111 389.5 694.5 389.5C661.889 389.5 635.5 363.282 635.5 331C635.5 298.718 661.889 272.5 694.5 272.5C727.111 272.5 753.5 298.718 753.5 331Z" stroke="black" stroke-opacity="0.2" stroke-width="7"/>
<path d="M753.5 253C753.5 285.282 727.111 311.5 694.5 311.5C661.889 311.5 635.5 285.282 635.5 253C635.5 220.718 661.889 194.5 694.5 194.5C727.111 194.5 753.5 220.718 753.5 253Z" fill="#F8CECE" stroke="black" stroke-width="7"/>
<rect x="4.90841" y="0.638332" width="267" height="267" transform="matrix(0.610012 0.792392 0.792392 -0.610012 704.408 441.282)" fill="#DFE0FF" stroke="black" stroke-width="7"/>
<rect width="274" height="274" transform="matrix(-0.574399 -0.818576 -0.818576 0.574399 453.219 902.876)" fill="#DFE0FF" fill-opacity="0.2"/>
<rect x="-4.87541" y="-0.854618" width="267" height="267" transform="matrix(-0.574399 -0.818576 -0.818576 0.574399 444.843 898.521)" stroke="black" stroke-opacity="0.2" stroke-width="7"/>
<rect width="274" height="274" transform="matrix(-0.574399 -0.818576 -0.818576 0.574399 544.703 780.799)" fill="#DFE0FF" fill-opacity="0.2"/>
<rect x="-4.87541" y="-0.854618" width="267" height="267" transform="matrix(-0.574399 -0.818576 -0.818576 0.574399 536.328 776.444)" stroke="black" stroke-opacity="0.2" stroke-width="7"/>
<rect width="274" height="274" transform="matrix(-0.574399 -0.818576 -0.818576 0.574399 644.173 840.253)" fill="#DFE0FF" fill-opacity="0.2"/>
<rect x="-4.87541" y="-0.854618" width="267" height="267" transform="matrix(-0.574399 -0.818576 -0.818576 0.574399 635.797 835.898)" stroke="black" stroke-opacity="0.2" stroke-width="7"/>
<ellipse cx="445.625" cy="1085.86" rx="62.5" ry="62" transform="rotate(-177.467 445.625 1085.86)" fill="#F8CECE" fill-opacity="0.2"/>
<path d="M386.683 1083.25C388.109 1051 415.631 1025.98 448.21 1027.42C480.79 1028.86 505.994 1056.22 504.568 1088.47C503.141 1120.72 475.619 1145.75 443.04 1144.3C410.46 1142.86 385.256 1115.51 386.683 1083.25Z" stroke="black" stroke-opacity="0.2" stroke-width="7"/>
<ellipse cx="703.179" cy="1042.7" rx="62.5" ry="62" transform="rotate(-177.467 703.179 1042.7)" fill="#F8CECE" fill-opacity="0.2"/>
<path d="M644.236 1040.09C645.663 1007.84 673.185 982.817 705.764 984.259C738.344 985.7 763.548 1013.06 762.121 1045.31C760.695 1077.56 733.173 1102.59 700.594 1101.14C668.014 1099.7 642.81 1072.34 644.236 1040.09Z" stroke="black" stroke-opacity="0.2" stroke-width="7"/>
<ellipse cx="630.179" cy="1150.7" rx="62.5" ry="62" transform="rotate(-177.467 630.179 1150.7)" fill="#F8CECE" fill-opacity="0.2"/>
<path d="M571.236 1148.09C572.663 1115.84 600.185 1090.82 632.764 1092.26C665.344 1093.7 690.548 1121.06 689.121 1153.31C687.695 1185.56 660.173 1210.59 627.594 1209.14C595.014 1207.7 569.81 1180.34 571.236 1148.09Z" stroke="black" stroke-opacity="0.2" stroke-width="7"/>
<ellipse cx="820.179" cy="1036.7" rx="62.5" ry="62" transform="rotate(-177.467 820.179 1036.7)" fill="#F8CECE" fill-opacity="0.2"/>
<path d="M761.236 1034.09C762.663 1001.84 790.185 976.817 822.764 978.259C855.344 979.7 880.548 1007.06 879.121 1039.31C877.695 1071.56 850.173 1096.59 817.594 1095.14C785.014 1093.7 759.81 1066.34 761.236 1034.09Z" stroke="black" stroke-opacity="0.2" stroke-width="7"/>
<ellipse cx="740.179" cy="900.701" rx="62.5" ry="62" transform="rotate(-177.467 740.179 900.701)" fill="#F8CECE" fill-opacity="0.2"/>
<path d="M681.236 898.094C682.663 865.843 710.185 840.817 742.764 842.259C775.344 843.7 800.548 871.058 799.121 903.309C797.695 935.559 770.173 960.585 737.594 959.144C705.014 957.703 679.81 930.345 681.236 898.094Z" stroke="black" stroke-opacity="0.2" stroke-width="7"/>
<ellipse cx="575.629" cy="975.499" rx="62.5" ry="62" transform="rotate(-177.467 575.629 975.499)" fill="#F8CECE" fill-opacity="0.2"/>
<path d="M516.687 972.892C518.113 940.641 545.635 915.615 578.214 917.056C610.794 918.497 635.998 945.856 634.571 978.106C633.145 1010.36 605.623 1035.38 573.044 1033.94C540.464 1032.5 515.26 1005.14 516.687 972.892Z" stroke="black" stroke-opacity="0.2" stroke-width="7"/>
<path d="M513.24 1050.82C514.667 1018.56 542.188 993.539 574.768 994.98C607.347 996.421 632.552 1023.78 631.125 1056.03C629.699 1088.28 602.177 1113.31 569.598 1111.87C537.018 1110.42 511.814 1083.07 513.24 1050.82Z" fill="#F8CECE" stroke="black" stroke-width="7"/>
<rect x="-4.87541" y="-0.854618" width="267" height="267" transform="matrix(-0.574399 -0.818576 -0.818576 0.574399 563.762 857.736)" fill="#DFE0FF" stroke="black" stroke-width="7"/>
</svg>
